<?xml version="1.0" encoding="UTF-8" standalone="no"?>
<!-- Generator: Adobe Illustrator 24.0.3, SVG Export Plug-In . SVG Version: 6.00 Build 0)  -->

<svg
   version="1.1"
   id="Layer_1"
   x="0px"
   y="0px"
   viewBox="0 0 1920 465"
   style="enable-background:new 0 0 1920 465;"
   xml:space="preserve"
   sodipodi:docname="real-python-logo.svg"
   inkscape:version="1.2.1 (9c6d41e, 2022-07-14)"
   xmlns:inkscape="http://www.inkscape.org/namespaces/inkscape"
   xmlns:sodipodi="http://sodipodi.sourceforge.net/DTD/sodipodi-0.dtd"
   xmlns="http://www.w3.org/2000/svg"
   xmlns:svg="http://www.w3.org/2000/svg"><defs
   id="defs29"><rect
     x="416.02494"
     y="92.782541"
     width="1438.1294"
     height="336.71083"
     id="rect1291" /></defs><sodipodi:namedview
   id="namedview27"
   pagecolor="#ffffff"
   bordercolor="#000000"
   borderopacity="0.25"
   inkscape:showpageshadow="2"
   inkscape:pageopacity="0.0"
   inkscape:pagecheckerboard="0"
   inkscape:deskcolor="#d1d1d1"
   showgrid="false"
   inkscape:zoom="0.66822917"
   inkscape:cx="792.39283"
   inkscape:cy="231.95635"
   inkscape:window-width="1427"
   inkscape:window-height="978"
   inkscape:window-x="299"
   inkscape:window-y="28"
   inkscape:window-maximized="0"
   inkscape:current-layer="layer2" />
<style
   type="text/css"
   id="style2">
	.st0{fill:#3A80A8;}
	.st1{fill:#FFD43C;}
	.st2{fill:#FFFFFF;}
</style>

<g
   inkscape:groupmode="layer"
   id="layer2"
   inkscape:label="Sfondo"
   sodipodi:insensitive="true"
   style="display:none"><rect
     style="fill:#000080"
     id="rect246"
     width="1912.5175"
     height="451.94077"
     x="2.9929855"
     y="7.4824624" /></g><g
   id="g24"
   sodipodi:insensitive="true"
   style="display:inline">
	<path
   id="path1948_8_"
   class="st0"
   d="m 193.18,43.71 c -15.62,0.07 -30.54,1.4 -43.66,3.73 -38.67,6.83 -45.69,21.13 -45.69,47.5 v 34.82 h 91.37 v 11.61 H 103.83 69.54 c -26.56,0 -49.81,15.96 -57.08,46.33 -8.39,34.8 -8.76,56.52 0,92.86 6.5,27.05 22.01,46.33 48.56,46.33 h 31.42 v -41.75 c 0,-30.16 26.09,-56.76 57.08,-56.76 h 91.27 c 25.41,0 45.69,-20.92 45.69,-46.43 V 94.93 c 0,-24.76 -20.89,-43.36 -45.69,-47.5 -15.71,-2.61 -31.99,-3.8 -47.61,-3.72 z m -49.42,28 c 9.44,0 17.15,7.83 17.15,17.47 0,9.6 -7.71,17.36 -17.15,17.36 -9.47,0 -17.15,-7.76 -17.15,-17.36 0.01,-9.63 7.68,-17.47 17.15,-17.47 z"
   style="display:inline" />
	<path
   id="path1950_8_"
   class="st1"
   d="m 297.86,141.36 v 40.57 c 0,31.46 -26.67,57.93 -57.08,57.93 h -91.27 c -25,0 -45.69,21.4 -45.69,46.43 v 87.01 c 0,24.76 21.53,39.33 45.69,46.43 28.92,8.5 56.66,10.04 91.27,0 23,-6.66 45.69,-20.06 45.69,-46.43 V 338.48 H 195.2 v -11.61 h 91.27 45.69 c 26.56,0 36.45,-18.52 45.69,-46.33 9.54,-28.62 9.13,-56.15 0,-92.86 -6.56,-26.44 -19.1,-46.33 -45.69,-46.33 h -34.3 z M 246.53,361.7 c 9.47,0 17.15,7.76 17.15,17.36 0,9.63 -7.67,17.47 -17.15,17.47 -9.44,0 -17.15,-7.83 -17.15,-17.47 0.01,-9.6 7.71,-17.36 17.15,-17.36 z"
   style="display:inline" />
	<g
   id="g22"
   style="display:none">
		<path
   class="st2"
   d="m 1320.93,151.45 c 8.4,-20.43 10.45,-42.25 8.8,-64.43 -0.93,-12.47 -5.32,-24.54 -12.99,-34.41 -25.59,-32.94 -54.65,-42.17 -90.34,-33.67 -31.88,7.6 -59.09,24.13 -82.37,46.84 -8.97,8.76 -17.1,18.68 -24.08,29.1 -11.74,17.51 -18.39,37.03 -17.53,58.47 0.8,19.93 12.6,35.32 30.94,40.76 2.59,0.77 5.39,0.84 8.38,1.28 -0.26,-1.7 -0.16,-2.41 -0.46,-2.69 -1.16,-1.09 -2.31,-2.32 -3.7,-3 -9.6,-4.67 -13.11,-13.3 -14.06,-22.95 -0.62,-6.33 -0.23,-12.93 0.86,-19.21 3.14,-18.16 11.47,-34 23.18,-48.09 24.86,-29.91 56.51,-49.09 93.88,-59.2 10.49,-2.84 21.2,-4.12 31.94,-2.84 18.32,2.19 22.62,3.47 27.53,23.45 4.27,17.35 1.91,34.71 -2.36,51.83 -3.74,15 -8.08,29.59 -15.94,42.81 -11.68,19.65 -38.18,61.21 -78.13,88.31 2.58,-62.16 5.92,-125.1 6.07,-132.73 0.02,-0.4 0.05,-0.74 0.08,-1.15 -0.02,-0.01 -0.04,-0.02 -0.06,-0.03 0.01,-0.4 0.02,-0.81 0.02,-1.26 -0.01,-0.64 -0.4,-1.34 -1.01,-2.09 -2.36,-4.42 -11.15,-8.54 -14.61,-11.17 -10.42,-7.91 -13.97,-6.63 -15.62,6.4 -4.37,25.36 -4.2,45.34 -6.39,95.8 -0.73,16.75 -1.21,39.57 -1.49,63.48 -13.94,5.2 -29.05,8.29 -45.3,8.29 -3.74,0 -7.55,1.3 -9.14,6.6 7.6,9.08 16.41,12.01 26.06,12.01 9.75,0 19.14,-0.95 28.15,-2.67 -0.18,26.1 -0.17,51.5 -0.03,69.82 0.04,5.64 10.86,11.67 15.38,14.68 10.89,7.25 14.35,5.76 15.19,-7.35 -0.71,-15.83 0.1,-49.4 1.47,-87.02 66.17,-28.41 106.68,-97.23 117.68,-123.97 z"
   id="path6" />
		<path
   class="st2"
   d="m 732.58,385.11 c -2.9,0.14 -11.7,8.6 -20.71,9.03 -35.7,1.69 -88.4,-113.61 -99.55,-148.03 C 674.4,194.44 697.54,100.43 698.08,84.92 699.6,41.43 653.37,0.71 610.27,5.79 c -19.62,2.31 -37.68,8.46 -54.82,17.68 -29.18,15.69 -53.7,36.69 -70.65,65.49 -9.82,16.69 -15.64,34.8 -14.57,54.51 1.14,21.01 15.57,38.02 34.63,41.03 1.57,0.25 3.28,-0.36 5.31,-0.61 -0.76,-1.26 -0.94,-1.83 -1.33,-2.15 -1.02,-0.86 -2.02,-1.84 -3.21,-2.39 -9.7,-4.51 -13.26,-13.15 -14.29,-22.78 -0.68,-6.32 -0.33,-12.94 0.75,-19.22 2.91,-17.02 10.36,-32.15 21.05,-45.63 25.31,-31.89 58.26,-52.03 97.36,-62.28 14.19,-3.72 28.65,-4.28 43.04,-0.3 4.99,1.38 9.32,3.92 10.67,8.92 13.91,51.81 -24.94,150.13 -93.82,196.27 2.51,-58.94 5.53,-116.02 5.67,-123.26 0.02,-0.4 0.05,-0.74 0.08,-1.15 -0.02,-0.01 -0.04,-0.02 -0.06,-0.03 0.01,-0.4 0.02,-0.81 0.02,-1.26 0,-0.64 -0.4,-1.34 -1.01,-2.09 -2.36,-4.42 -11.15,-8.54 -14.61,-11.17 -10.42,-7.91 -13.97,-6.63 -15.62,6.4 -4.37,25.36 -4.2,45.34 -6.39,95.8 -0.63,14.47 -1.07,33.47 -1.37,53.78 -14.27,5.17 -29.43,8.08 -45.36,8.08 -3.31,0 -6.27,1.78 -6.62,5.76 7.55,10.53 21.76,14.86 35.44,14.86 5.57,0 10.97,-0.33 16.23,-0.92 -0.23,28.22 -0.22,56.2 -0.07,75.95 0.04,5.64 10.86,11.67 15.38,14.68 10.89,7.25 14.35,5.76 15.19,-7.35 -0.74,-16.37 0.16,-51.71 1.62,-90.88 5.48,-2.03 10.76,-4.37 15.84,-7.01 13.61,36.91 58.97,150.47 116.88,147.73 22.68,-1.05 33.64,-27.27 30.95,-27.14 z"
   id="path8" />
		<path
   class="st2"
   d="m 1734.2,156.95 c -3.03,-0.48 -6.07,-1.68 -8.82,-3.09 -18.83,-9.62 -33.11,-6.36 -43.98,10.29 -2.63,4.03 -5.1,8.29 -6.84,12.75 -12.21,31.31 -15.07,64.08 -17.11,91.64 -0.04,22.92 2.42,36.04 8.11,47.42 11.18,22.39 24.38,27.23 46.11,23.74 8.48,-1.36 15.1,-5.87 18.99,-13.51 3.4,-6.67 6.56,-13.56 8.94,-20.65 9.05,-26.87 13.56,-54.65 16.48,-82.8 1.72,-16.57 0.28,-32.73 -3.31,-48.8 -2.51,-11.25 -7.26,-15.2 -18.57,-16.99 z m 0.97,66.28 c -3.73,24.71 -7.14,49.47 -14.81,73.35 -2.37,7.39 -5.41,14.6 -8.6,21.68 -1.6,3.55 -4.63,10.23 -6.58,10.23 -2.32,0 -10.77,-11.09 -12.61,-17.5 -3.5,-12.23 -5.06,-24.8 -4.33,-37.48 1.62,-28.23 15.01,-93.71 23.91,-105.5 5.29,-6.99 12.76,-6.17 17.11,1.69 1.4,2.53 2.35,5.43 2.94,8.27 3.32,15.9 5.42,29.05 2.97,45.26 z"
   id="path10" />
		<path
   class="st2"
   d="m 1913.98,232.16 c 0,0 -0.44,-22.84 -0.73,-34.54 -0.23,-9.23 -1.66,-18.89 -4.13,-27.9 -2.93,-10.66 -17.84,-15.93 -28.22,-18.42 -4.95,-1.19 -9.07,-0.32 -12.33,3.63 -6.15,7.45 -48.19,98.08 -50.99,105.17 0,-4.45 0,-8.97 0,-13.49 0.25,-9.98 0.47,-22.68 -0.08,-36.32 -0.07,-13.59 -0.2,-24.26 -0.44,-28.41 -0.32,-5.63 -10.86,-11.67 -15.38,-14.68 -10.89,-7.26 -14.35,-5.76 -15.19,7.35 0,16.71 1.32,169.32 1.65,171.71 0.67,4.9 3.45,7.49 8.44,8.1 8.48,1.03 17.98,0.75 19.87,-3.2 21.47,-105.63 57.18,-160.82 70.41,-182.85 0,5.3 0.18,8.98 -0.03,12.63 -1.06,18.24 -2.33,36.47 -3.33,54.71 -0.06,1.18 -0.9,115.16 -0.13,128.57 0.32,5.63 10.86,11.67 15.38,14.68 10.89,7.25 14.35,5.76 15.19,-7.35 0,-25.73 -0.07,-138.62 0.04,-139.39 z"
   id="path12" />
		<path
   class="st2"
   d="m 934.81,144.81 c -1.16,-0.46 -2.35,-0.89 -3.56,-1.23 -7.11,-2.02 -8.22,-1.53 -10.15,5.83 -3.13,11.95 -9.68,37.7 -10.55,40.8 -3.38,-7.37 -6.36,-16.07 -9.75,-22.09 -8.73,-15.48 -21.63,-25.67 -39.99,-25.67 -19.72,0 -46.14,37.79 -50.94,91.41 -13.52,27.29 -53.96,94.64 -71.84,94.64 -16.09,0 -24.81,-45.8 -25.87,-60.64 -0.14,-2 0.26,-4.04 0.39,-5.91 20.74,2.49 37.66,-3.56 51.19,-18.77 12.37,-13.91 20.35,-30.23 26.14,-47.73 4.2,-12.68 5,-25.79 4.44,-39.03 -0.39,-9.02 -4.68,-16.16 -12.04,-20.83 -14.23,-9.03 -29.35,-11.55 -45.15,-3.88 -16.49,8 -28.71,20.57 -38.1,36.07 -12.51,20.64 -14.31,43.44 -17.2,67.11 -2.98,24.47 2.21,56.46 15.31,77.22 7.3,11.57 14.02,19.36 26.43,24.88 19,8.45 35.79,6.13 49.59,-9.72 5.46,-6.27 24.96,-35.02 37.03,-55.41 1.43,13.57 4.3,27.71 8.96,42.16 5.48,16.99 13.42,18.99 30.28,22.16 6.07,1.14 10.72,-0.78 13.5,-6.2 3.67,-7.16 31.64,-59.93 38.28,-79.98 1.18,4.05 4.97,109.84 9.58,130.56 1.65,7.43 6.02,12.6 13.32,14.82 5.1,1.55 16.82,3.95 21.58,2.6 -3.56,-8.94 -5.21,-30.21 -5.86,-40.92 -0.7,-11.53 -2.34,-110.94 2.31,-148.94 1.79,-14.62 3.52,-29.25 4.74,-43.92 0.72,-8.45 -4.21,-16.27 -12.07,-19.39 z m -205.34,39.82 c 7.91,-15.21 24.85,-39.28 43.23,-39.28 11.99,5.48 6.64,21.48 5.51,27.5 -5.07,26.91 -17.16,50.15 -37.51,68.71 -7.47,6.82 -16.31,9.97 -27.49,10.95 -0.24,-0.89 -0.83,-1.88 -0.72,-2.79 2.72,-22.46 6.36,-44.67 16.98,-65.09 z m 160.47,42.65 c -15.35,32.57 -32.91,72.62 -37.38,75.96 -9.92,0 -17.71,-140.41 19.78,-140.41 4.35,0 18.42,23.99 20.39,29.54 4.12,11.58 2.74,23.16 -2.79,34.91 z"
   id="path14" />
		<path
   class="st2"
   d="m 1046.28,343.78 c -2.9,0 -16.9,9.07 -23.82,9.07 -6.92,0 -9.8,-42.92 -9.83,-55.94 0,0 5.35,-209.15 4.66,-222.56 C 1017,68.72 1006.5,62.62 1002,59.58 c -10.85,-7.32 -14.32,-5.85 -15.24,7.26 -4.75,64.42 -5.38,229.72 -4.75,239.63 0,8.67 -0.2,62.99 32.06,62.99 22.76,-0.02 34.9,-25.68 32.21,-25.68 z"
   id="path16" />
		<path
   class="st2"
   d="m 1608.94,179.03 c -11.24,-4.81 -17.13,-3.21 -25.86,5.3 -13.2,12.86 -43.53,89.61 -43.84,89.54 -0.01,-9.22 0.09,-150.31 0.09,-150.31 -0.06,-26.58 -0.2,-51.27 -0.53,-57.04 -0.32,-5.63 -10.86,-11.67 -15.38,-14.68 -8.7,-5.79 -12.61,-5.99 -14.26,0.83 -0.05,0.03 -0.15,0 -0.17,0.08 -0.01,0.01 -0.01,0.32 -0.02,0.76 -0.32,1.57 -0.54,3.44 -0.68,5.68 0,28.89 0.08,94.74 0.11,124.41 -15.98,-0.29 -50.9,-0.65 -50.9,-0.65 0,-3.86 0.3,-119.68 -0.46,-133.08 -0.32,-5.63 -10.86,-11.67 -15.38,-14.68 -10.89,-7.25 -14.35,-5.76 -15.19,7.35 0,44.42 -0.04,140.42 -0.04,140.42 -5.87,0 -41.85,-1.74 -41.85,1.69 0,3.27 26.33,18.97 28.75,18.97 7.09,0 13.1,0 13.1,0 0,0 -0.26,114.07 0.51,127.48 0.32,5.63 10.86,11.67 15.38,14.68 10.89,7.25 14.35,5.76 15.19,-7.35 l -0.01,-134.81 c 7.67,-0.3 31.01,0.46 50.92,0.67 0.03,29.56 0.24,144.51 0.35,146.45 0.32,5.63 10.86,11.67 15.38,14.68 8.62,5.74 12.58,5.97 14.27,-0.67 8.36,-45.86 56.91,-174.26 65.1,-174.4 0,5.03 0.38,9.04 -0.07,12.97 -0.81,7.06 -2.7,167.44 -2.54,176.93 0.1,5.64 10.86,11.67 15.38,14.68 10.89,7.26 14.35,5.76 15.19,-7.35 0,-9.42 -2.02,-173.56 -3.34,-183.66 -1.52,-11.85 -8.1,-20.14 -19.2,-24.89 z"
   id="path18" />
		<path
   class="st2"
   d="m 1367.62,205.63 c -10.89,-7.25 -14.35,-5.76 -15.19,7.35 -18.84,111.88 -44.81,151 -49.51,151 -2.79,0 -1.98,-41.53 -2.1,-54.61 l 0.05,-9.61 c -0.12,-28.49 0.24,-15.24 -0.53,-28.64 -0.32,-5.63 -10.86,-11.67 -15.38,-14.68 -10.89,-7.25 -14.35,-5.76 -15.19,7.35 0,10.94 0.61,64.35 0.61,72.29 1.58,12.34 2.9,28.83 14.77,35.08 22.22,11.69 32.21,8.81 45.11,-10.21 5.99,-8.83 20.27,-48.5 21.12,-49.87 -0.68,27.77 1.3,129.32 -30.78,129.32 -28.37,0 -33.72,-34.65 -37.11,-34.65 -2.8,0 -7.65,55.29 42.64,55.29 50.42,0 57.87,-65.34 57.87,-123.68 0,-58.35 -1.46,-109.22 -1.99,-118.53 -0.32,-5.64 -9.87,-10.19 -14.39,-13.2 z"
   id="path20" />
	</g>
</g><g
   inkscape:groupmode="layer"
   id="layer1"
   inkscape:label="Scritte"
   sodipodi:insensitive="true"><text
     xml:space="preserve"
     style="font-weight:bold;font-size:373.333px;font-family:'PT Serif';-inkscape-font-specification:'PT Serif Bold';display:inline;fill:#ffffff;stroke-width:1.73181"
     x="699.73578"
     y="274.34122"
     id="text1349"
     transform="scale(0.70077856,1.4269843)"><tspan
       sodipodi:role="line"
       id="tspan1347"
       x="699.73578"
       y="274.34122"
       style="font-style:normal;font-variant:normal;font-weight:bold;font-stretch:normal;font-size:373.333px;font-family:'Brush Script MT';-inkscape-font-specification:'Brush Script MT Bold';stroke-width:1.73181">Arberia Theme</tspan></text></g></svg>
