<?xml version="1.0" standalone="no"?>
<!DOCTYPE svg PUBLIC "-//W3C//DTD SVG 20010904//EN"
 "http://www.w3.org/TR/2001/REC-SVG-20010904/DTD/svg10.dtd">
<svg version="1.0" xmlns="http://www.w3.org/2000/svg"
 width="512.000000pt" height="512.000000pt" viewBox="0 0 512.000000 512.000000"
 preserveAspectRatio="xMidYMid meet">
<metadata>
Created by potrace 1.14, written by Peter Selinger 2001-2017
</metadata>
<g transform="translate(0.000000,512.000000) scale(0.100000,-0.100000)"
fill="#000000" stroke="none">
<path d="M393 5106 c-186 -45 -345 -207 -382 -388 -8 -38 -11 -677 -9 -2183
l3 -2130 22 -60 c67 -175 220 -306 393 -335 46 -8 684 -10 2180 -8 l2115 3 68
27 c86 35 141 73 205 143 60 66 106 156 122 240 8 44 10 633 8 2180 l-3 2120
-23 59 c-64 169 -213 300 -380 335 -82 17 -4248 14 -4319 -3z m2986 -632 c338
-49 544 -204 661 -497 60 -151 74 -238 74 -467 0 -224 -8 -292 -70 -540 -49
-200 -100 -352 -266 -794 -186 -495 -191 -516 -186 -695 4 -143 17 -189 57
-211 84 -44 219 50 573 397 232 229 247 238 287 188 41 -53 53 -195 26 -300
-46 -174 -209 -407 -388 -554 -157 -127 -357 -239 -507 -282 -104 -29 -327
-38 -423 -15 -232 55 -330 217 -331 551 0 208 41 419 161 810 25 83 48 159 50
171 5 20 0 21 -164 28 -92 3 -333 9 -534 13 l-366 6 -6 -24 c-37 -150 -87
-762 -87 -1066 0 -155 -11 -217 -53 -296 -42 -80 -81 -111 -232 -183 -149 -71
-190 -84 -274 -85 -83 -1 -124 15 -171 68 -64 73 -82 145 -88 347 -5 188 6
317 44 541 23 130 129 577 149 628 9 21 28 22 -315 -24 -235 -32 -363 -39
-398 -20 -17 9 -22 21 -22 49 1 185 338 398 792 500 l122 28 25 59 c279 678
586 1132 961 1422 288 222 560 297 899 247z"/>
<path d="M2880 3777 c-251 -75 -462 -298 -618 -652 -53 -119 -123 -327 -114
-336 4 -4 259 -9 568 -13 l561 -6 38 137 c52 191 74 302 81 418 15 230 -49
389 -181 451 -70 33 -225 33 -335 1z"/>
</g>
</svg>
